<?xml version="1.0" encoding="utf-8"?>
<!-- Generator: Adobe Illustrator 25.0.0, SVG Export Plug-In . SVG Version: 6.00 Build 0)  -->
<svg version="1.1" id="Camada_1" xmlns="http://www.w3.org/2000/svg" xmlns:xlink="http://www.w3.org/1999/xlink" x="0px" y="0px"
	 viewBox="0 0 640 640" style="enable-background:new 0 0 640 640;" xml:space="preserve">
<path d="M542.76,187.17H97.24c-34.93,0-63.24-28.31-63.24-63.24v0c0-34.06,49.85-191.88,62.36-72.85c0.57,5.45,5.17,9.61,10.65,9.61
	h435.75c34.93,0,63.24,28.31,63.24,63.24v0C606,158.86,559.28,321.63,542.76,187.17C542.76,187.17,542.76,187.17,542.76,187.17z"/>
<path d="M542.76,383.73H97.24c-34.93,0-63.24-28.31-63.24-63.24v0c0-33.23,18.57-180.65,57.18-80.53
	c4.01,10.39,13.94,17.29,25.08,17.29h426.51c34.93,0,63.24,28.31,63.24,63.24v0C606,355.41,563.84,541.54,542.76,383.73
	C542.76,383.73,542.76,383.73,542.76,383.73z"/>
<path d="M542.76,580.28H97.24c-34.93,0-63.24-28.31-63.24-63.24v0c0-33.34,56.08-151,62.65-75.36c0.59,6.84,6.28,12.12,13.15,12.12
	l432.96,0c34.93,0,63.24,28.31,63.24,63.24v0C606,551.97,569.54,698.78,542.76,580.28C542.76,580.28,542.76,580.28,542.76,580.28z"
	/>
</svg>
